# xmcd
#
# Track frame offsets:
#	150
#	16410
#	34146
#	50516
#	71908
#	88286
#	109186
#	129688
#	148323
#	168342
#	185788
#	206014
#	226911
#	249069
#	266761
#
# Disc length: 4149 seconds
#
# Revision: 1
# Processed by: cddbd v1.5.2PL0 Copyright (c) Steve Scherf et al.
# Submitted via: audiograbber 1.83.01
#
DISCID=e310330f
DTITLE=TWO TIGHT and Friends - give a little bit
DYEAR=1900
DGENRE=
TTITLE0=Give A Little Bit
TTITLE1=Something Real
TTITLE2=Have A Little Faith In Me
TTITLE3=Don't Give Up
TTITLE4=Crazy
TTITLE5=I Wish I Was A Punkrocker
TTITLE6=Rosanna
TTITLE7=She Bob
TTITLE8=Sometimes Love Just Ain't Enough
TTITLE9=Solsbury Hill
TTITLE10=I'm Not In Love
TTITLE11=Hallelujah
TTITLE12=Rikki Don't Lose That Number
TTITLE13=Suzanne
TTITLE14=Piece Of My Heart
EXTD=Marion La Marché - Vocals\nStefan Obermann - Gitarre
EXTT0=Supertramp
EXTT1=Phoebe Snow
EXTT2=John Hiatt
EXTT3=Peter Gabriel and Kate Bush
EXTT4=Seal
EXTT5=Snadi Thom
EXTT6=Toto
EXTT7=Cyndi Lauper
EXTT8=Patty Smyth and Don Henley
EXTT9=Peter Gabriel
EXTT10=Ten CC
EXTT11=Leonard Cohen
EXTT12=Steely Dan
EXTT13=Leonard Cohen
EXTT14=Janis Joplin
PLAYORDER=
